{"title":"Days Of Heaven-720p MP4 AAC x264 BRRip 1978-CC","uid":7646365,"size":2850232665,"categoryP":"video","categoryS":"hd___movies","magnet":"?xt=urn:btih:caa771d208a4da2e05fe8ca511f30dfc1660d62d&amp;dn=Days+Of+Heaven-720p+MP4+AAC+x264+BRRip+1978-CC&amp;tr=udp%3A%2F%2Ftracker.openbittorrent.com%3A80&amp;tr=udp%3A%2F%2Fopen.demonii.com%3A1337&amp;tr=udp%3A%2F%2Ftracker.coppersurfer.tk%3A6969&amp;tr=udp%3A%2F%2Fexodus.desync.com%3A6969","seeders":19,"leechers":3,"uploader":"Caveman44","files":-1,"time":1347915272,"description":" &lt;a href=&quot;http://www.imdb.com/title/tt0077405/&quot; rel=&quot;nofollow&quot; target=&quot;_NEW&quot;&gt;http://www.imdb.com/title/tt0077405/&lt;/a&gt;\n\nSource: Days Of Heaven 1978 720p BluRay x264-LCHD Thanks!\n\nSubs: Croatian, Dutch, English, Finnish, French, Greek, Hungarian, Italian, Servian and Spanish.\n\nSample and Screens included.\n\nGeneral\nComplete name                            : Days Of Heaven-720p MP4 AAC x264 BRRip 1978-CC.mp4\nFormat                                   : MPEG-4\nFormat profile                           : Base Media\nCodec ID                                 : isom\nFile size                                : 2.62 GiB\nDuration                                 : 1h 34mn\nOverall bit rate mode                    : Variable\nOverall bit rate                         : 3 996 Kbps\nEncoded date                             : UTC 2012-09-14 06:57:47\n\nVideo\nID                                       : 1\nFormat                                   : AVC\nFormat/Info                              : Advanced Video Codec\nFormat profile                           : &lt;a class=&quot;__cf_email__&quot; href=&quot;/cdn-cgi/l/email-protection&quot; data-cfemail=&quot;ca82a3ada28a86f9e4fb&quot;&gt;[email&amp;#160;protected]&lt;/a&gt;&lt;script cf-hash='f9e31' type=&quot;text/javascript&quot;&gt;\n/* &lt;![CDATA[ */!function(){try{var t=&quot;currentScript&quot;in document?document.currentScript:function(){for(var t=document.getElementsByTagName(&quot;script&quot;),e=t.length;e--;)if(t[e].getAttribute(&quot;cf-hash&quot;))return t[e]}();if(t&amp;&amp;t.previousSibling){var e,r,n,i,c=t.previousSibling,a=c.getAttribute(&quot;data-cfemail&quot;);if(a){for(e=&quot;&quot;,r=parseInt(a.substr(0,2),16),n=2;a.length-n;n+=2)i=parseInt(a.substr(n,2),16)^r,e+=String.fromCharCode(i);e=document.createTextNode(e),c.parentNode.replaceChild(e,c)}}}catch(u){}}();/* ]]&gt; */&lt;/script&gt;\nFormat settings, CABAC                   : Yes\nFormat settings, ReFrames                : 5 frames\nCodec ID                                 : avc1\nCodec ID/Info                            : Advanced Video Coding\nDuration                                 : 1h 33mn\nBit rate                                 : 3 672 Kbps\nMaximum bit rate                         : 21.5 Mbps\nWidth                                    : 1 280 pixels\nHeight                                   : 720 pixels\nDisplay aspect ratio                     : 16:9\nFrame rate mode                          : Variable\nFrame rate                               : 23.976 fps\nMinimum frame rate                       : 19.048 fps\nMaximum frame rate                       : 24.390 fps\nColor space                              : YUV\nChroma subsampling                       : 4:2:0\nBit depth                                : 8 bits\nScan type                                : Progressive\nBits/(Pixel*Frame)                       : 0.166\nStream size                              : 2.37 GiB (90%)\nWriting library                          : x264 core 112\n\nAudio\nID                                       : 2\nFormat                                   : AAC\nFormat/Info                              : Advanced Audio Codec\nFormat profile                           : LC\nCodec ID                                 : 40\nDuration                                 : 1h 34mn\nBit rate mode                            : Variable\nBit rate                                 : 384 Kbps\nMaximum bit rate                         : 542 Kbps\nChannel(s)                               : 6 channels\nChannel positions                        : Front: L C R, Side: L R, LFE\nSampling rate                            : 48.0 KHz\nCompression mode                         : Lossy\nDelay relative to video                  : 83ms\nStream size                              : 258 MiB (10%)\nLanguage                                 : English\n\nEnjoy...\n\nRequested by DreamExtractor.\n\nComing up soon: Cradle 2 The Grave, Titanic, Batman Begins and more...","torrent":{"xt":"urn:btih:caa771d208a4da2e05fe8ca511f30dfc1660d62d","amp;dn":"Days+Of+Heaven-720p+MP4+AAC+x264+BRRip+1978-CC","amp;tr":["udp%3A%2F%2Ftracker.openbittorrent.com%3A80","udp%3A%2F%2Fopen.demonii.com%3A1337","udp%3A%2F%2Ftracker.coppersurfer.tk%3A6969","udp%3A%2F%2Fexodus.desync.com%3A6969"],"infoHash":"caa771d208a4da2e05fe8ca511f30dfc1660d62d","infoHashBuffer":{"type":"Buffer","data":[202,167,113,210,8,164,218,46,5,254,140,165,17,243,13,252,22,96,214,45]},"announce":[],"urlList":[]}}